<svg width="1201" height="107" viewBox="0 0 1201 107" fill="none" xmlns="http://www.w3.org/2000/svg">
<path d="M98.6287 47.8331H74.1222C74.3195 45.9501 74.2009 44.0474 73.7714 42.2035C73.4018 40.6139 72.6764 39.1289 71.6499 37.8602C70.615 36.6025 69.2666 35.6401 67.7409 35.0704C65.8991 34.383 63.9429 34.0541 61.9776 34.1015C57.9185 34.0308 53.9261 35.1391 50.4844 37.2922C46.9807 39.5784 44.1084 42.7092 42.1318 46.3965C39.7299 50.7789 38.1023 55.543 37.3207 60.479C36.5237 64.8307 36.5237 69.2909 37.3207 73.6426C37.8235 76.7244 39.4258 79.5196 41.8311 81.5108C44.4682 83.3362 47.6313 84.2458 50.8352 84.1001C53.1314 84.1179 55.4192 83.82 57.6342 83.2147C59.6059 82.6759 61.4784 81.8242 63.1803 80.6922C64.7821 79.6129 66.1934 78.275 67.3566 76.7331C68.5234 75.1821 69.4264 73.4494 70.0295 71.6046H94.7197C93.652 75.7341 91.9621 79.6771 89.7082 83.2982C84.3802 91.9594 76.3667 98.6412 66.8889 102.325C61.3243 104.451 55.4048 105.494 49.4487 105.399C41.7922 105.609 34.2278 103.689 27.5983 99.8531C21.4305 96.1363 16.7159 90.4258 14.2342 83.6657C11.4945 76.5716 10.9377 67.9128 12.5637 57.6892C13.8545 48.7737 17.2252 40.2871 22.403 32.9154C26.9487 26.5151 33.0172 21.348 40.0604 17.8808C46.9384 14.5341 54.4958 12.8191 62.1446 12.8692C67.5257 12.7936 72.884 13.5833 78.0145 15.2079C82.4057 16.5958 86.4456 18.9149 89.8585 22.0069C93.0752 25.0131 95.5119 28.757 96.9582 32.9154C98.5464 37.7177 99.1154 42.7985 98.6287 47.8331Z" fill="#393939"/>
<path d="M100.45 104.18L115.484 13.9718H154.324C160.184 13.7863 166.001 15.0425 171.263 17.6302C175.724 19.8685 179.268 23.5893 181.286 28.1545C183.373 33.3784 183.878 39.1003 182.739 44.6091C181.966 50.4627 179.634 56.0009 175.987 60.6442C172.34 65.2876 167.512 68.8654 162.008 71.0033C156.084 73.3258 149.761 74.4611 143.399 74.3443H120.162L123.336 55.4674H141.711C144.276 55.5188 146.832 55.1521 149.279 54.3816C151.313 53.7767 153.14 52.6203 154.558 51.0406C155.991 49.1969 156.872 46.9839 157.097 44.6592C157.551 42.5412 157.335 40.3344 156.479 38.3446C155.602 36.6817 154.146 35.398 152.386 34.7363C150.117 33.8929 147.706 33.4958 145.286 33.567H136.717L124.923 104.18H100.45ZM160.137 62.801L175.807 104.18H149.212L134.077 62.801H160.137Z" fill="#393939"/>
<path d="M184.427 104.18L199.461 13.9717H264.428L261.087 33.7005H220.577L218.104 49.1862H255.256L251.915 68.915H214.713L212.224 84.4508H252.55L249.209 104.18H184.427Z" fill="#393939"/>
<path d="M284.958 104.18H258.547L303.267 13.9717H336.677L351.462 104.18H325.101L316.297 38.8457H315.596L284.958 104.18ZM286.011 68.6143H335.675L332.501 86.99H282.853L286.011 68.6143Z" fill="#393939"/>
<path d="M357.86 33.7508L361.201 14.022H439.548L436.207 33.7508H409.094L397.401 104.18H373.345L385.039 33.7508H357.86Z" fill="#393939"/>
<path d="M473.176 14.022L458.141 104.23H433.735L448.769 14.022H473.176Z" fill="#393939"/>
<path d="M509.442 14.022L517.377 77.5852H518.079L547.129 14.1055H574.726L529.99 104.313H496.579L481.795 14.1055L509.442 14.022Z" fill="#393939"/>
<path d="M568.428 104.18L583.463 13.9717H648.429L645.088 33.7005H604.528L602.056 49.1862H639.208L635.867 68.915H598.715L596.243 84.4007H636.535L633.194 104.13L568.428 104.18Z" fill="#393939"/>
<path d="M645.54 104.18L660.574 13.9718H699.664C705.416 13.7836 711.148 14.7257 716.537 16.7448C720.461 18.1988 723.761 20.9673 725.875 24.5796C727.779 28.2475 728.368 32.4572 727.545 36.5071C726.981 39.7516 725.697 42.8284 723.787 45.5112C721.841 48.257 719.372 50.5904 716.52 52.377C713.526 54.296 710.191 55.6229 706.697 56.286L706.513 57.1547C710.087 57.1866 713.585 58.1852 716.637 60.0447C719.484 61.813 721.705 64.4307 722.985 67.5286C724.361 71.0633 724.697 74.9179 723.954 78.6375C723.16 83.49 721.071 88.038 717.906 91.8012C714.537 95.7704 710.271 98.8798 705.461 100.872C699.938 103.169 694.002 104.306 688.021 104.213L645.54 104.18ZM673.37 84.6347H684.813C688.164 84.8098 691.493 83.9966 694.385 82.2959C695.528 81.5339 696.492 80.5328 697.21 79.3618C697.929 78.1908 698.384 76.8779 698.545 75.5136C698.927 73.7085 698.741 71.8292 698.01 70.1346C697.266 68.6282 696.002 67.4417 694.452 66.7935C692.46 65.9616 690.312 65.5685 688.154 65.6409H676.361L673.37 84.6347ZM679 50.4559H689.023C691.002 50.4814 692.968 50.1358 694.82 49.4369C696.493 48.8314 697.991 47.8213 699.18 46.4968C700.342 45.1834 701.092 43.5564 701.335 41.8193C701.627 40.6733 701.596 39.4687 701.245 38.3393C700.894 37.2098 700.237 36.1997 699.347 35.4212C697.3 33.8624 694.766 33.0809 692.197 33.2161H681.806L679 50.4559Z" fill="#393939"/>
<path d="M728.297 104.18L743.332 13.9717H808.298L804.957 33.7005H764.397L761.924 49.1862H799.077L795.736 68.915H758.583L756.111 84.4007H796.437L793.096 104.13L728.297 104.18Z" fill="#393939"/>
<path d="M805.408 104.18L820.443 13.9717H885.409L882.068 33.7005H841.508L839.036 49.1862H876.188L872.847 68.915H835.695L833.222 84.4007H873.548L870.207 104.13L805.408 104.18Z" fill="#393939"/>
<path d="M882.536 104.18L897.57 13.9717H960.967L957.626 33.7005H918.619L916.163 49.1862H951.244L947.903 68.915H912.822L907.026 104.13L882.536 104.18Z" fill="#393939"/>
<path d="M975.082 106.184C972.831 106.248 970.592 105.821 968.521 104.934C966.451 104.046 964.598 102.719 963.091 101.044C961.585 99.369 960.461 97.3865 959.797 95.2337C959.133 93.081 958.945 90.8096 959.246 88.5771C959.745 83.8033 962.074 79.4086 965.744 76.3155C969.331 73.0576 974.012 71.2685 978.858 71.3039C981.053 71.2472 983.234 71.6657 985.253 72.5307C987.271 73.3957 989.079 74.6868 990.551 76.3155C992.073 77.9411 993.214 79.8843 993.893 82.0048C994.572 84.1253 994.772 86.3701 994.477 88.5771C994.18 91.7904 993.026 94.8652 991.136 97.4809C989.236 100.092 986.791 102.258 983.97 103.829C981.262 105.373 978.199 106.185 975.082 106.184V106.184Z" fill="#393939"/>
<path d="M1103.63 47.8331H1079.22C1079.42 45.9502 1079.3 44.0474 1078.87 42.2035C1078.5 40.6177 1077.78 39.1341 1076.77 37.8602C1075.72 36.6058 1074.37 35.6445 1072.84 35.0704C1071 34.383 1069.04 34.0541 1067.08 34.1015C1063.02 34.0308 1059.03 35.1391 1055.58 37.2922C1052.08 39.5784 1049.21 42.7092 1047.23 46.3965C1044.81 50.777 1043.16 55.5403 1042.35 60.479C1041.56 64.8307 1041.56 69.2909 1042.35 73.6426C1042.9 76.7292 1044.54 79.5137 1046.98 81.4774C1049.62 83.3005 1052.78 84.2099 1055.99 84.0667C1058.28 84.0845 1060.57 83.7866 1062.78 83.1813C1064.76 82.6458 1066.63 81.7939 1068.33 80.6588C1069.94 79.5839 1071.35 78.2453 1072.51 76.6997C1073.67 75.1487 1074.58 73.416 1075.18 71.5712H1099.82C1098.75 75.7007 1097.06 79.6437 1094.81 83.2648C1089.49 91.9294 1081.48 98.617 1072.01 102.309C1066.45 104.432 1060.53 105.476 1054.58 105.382C1046.92 105.592 1039.35 103.672 1032.72 99.8364C1026.54 96.1258 1021.83 90.4131 1019.35 83.649C1016.59 76.5549 1016.03 67.8961 1017.68 57.6725C1018.95 48.77 1022.29 40.2899 1027.44 32.9154C1031.98 26.5151 1038.05 21.348 1045.09 17.8808C1056.96 12.2481 1070.5 11.2763 1083.05 15.1578C1087.44 16.5457 1091.48 18.8648 1094.89 21.9568C1098.13 24.9848 1100.57 28.7587 1102.01 32.9488C1103.58 37.7425 1104.13 42.813 1103.63 47.8331Z" fill="#393939"/>
<path d="M1200.03 60.6796C1198.76 69.5514 1195.41 77.9979 1190.26 85.3364C1185.68 91.7336 1179.58 96.8984 1172.52 100.371C1165.56 103.726 1157.93 105.441 1150.2 105.383C1142.5 105.579 1134.89 103.679 1128.19 99.8866C1121.98 96.227 1117.19 90.5832 1114.59 83.8664C1111.75 76.7834 1111.19 68.1413 1112.92 57.94C1114.15 49.0431 1117.47 40.5643 1122.61 33.1996C1127.2 26.7392 1133.32 21.5211 1140.43 18.0146C1147.43 14.5767 1155.13 12.8097 1162.93 12.8527C1170.6 12.6706 1178.17 14.5884 1184.83 18.3988C1191.06 22.1283 1195.83 27.8584 1198.38 34.6529C1201.19 41.7471 1201.74 50.4226 1200.03 60.6796ZM1175.38 57.8731C1176.19 53.562 1176.26 49.1421 1175.56 44.8097C1175.08 41.6949 1173.5 38.8561 1171.1 36.8079C1168.46 34.8875 1165.24 33.9321 1161.98 34.1017C1157.91 34.025 1153.91 35.1211 1150.45 37.2589C1146.94 39.5358 1144.06 42.676 1142.1 46.38C1139.74 50.8398 1138.17 55.6795 1137.47 60.6796C1136.54 64.9655 1136.46 69.393 1137.24 73.7096C1137.78 76.7966 1139.44 79.5757 1141.9 81.511C1144.59 83.3422 1147.8 84.2508 1151.05 84.1003C1155.06 84.177 1159.01 83.1108 1162.43 81.0265C1165.89 78.8245 1168.73 75.7774 1170.68 72.1728C1173.06 67.712 1174.65 62.8744 1175.38 57.8731Z" fill="#393939"/>
<path d="M91.9466 40.132H67.5069C67.6868 38.2432 67.5684 36.3378 67.1561 34.4857C66.783 32.9024 66.0578 31.4235 65.0345 30.1591C63.9965 28.9048 62.6491 27.9432 61.1255 27.3693C59.2838 26.6819 57.3275 26.353 55.3622 26.4004C51.3032 26.3297 47.3108 27.438 43.8691 29.5911C40.3653 31.8773 37.493 35.0081 35.5165 38.6954C33.124 43.0895 31.5131 47.8658 30.7555 52.8113C29.9585 57.163 29.9585 61.6233 30.7555 65.975C31.2582 69.0567 32.8606 71.852 35.2659 73.8431C37.9029 75.6685 41.0661 76.5781 44.27 76.4324C46.5677 76.4393 48.8555 76.1302 51.069 75.5136C53.0407 74.9748 54.9132 74.1231 56.6151 72.9911C59.8501 70.8168 62.2573 67.6151 63.4475 63.9035H88.1044C87.0366 68.033 85.3468 71.976 83.0928 75.5971C80.5665 79.7116 77.4162 83.4086 73.7546 86.5557C69.7631 90.0027 65.2086 92.7376 60.2903 94.641C54.7256 96.7668 48.8061 97.8101 42.8501 97.7148C35.1982 97.9418 27.6336 96.0391 20.9997 92.2188C14.8318 88.502 10.1172 82.7915 7.63554 76.0315C4.8959 68.9373 4.33906 60.2785 5.96503 50.0549C7.22084 41.1495 10.5511 32.6636 15.6874 25.2811C20.2311 18.8853 26.293 13.7189 33.3281 10.2465C40.2126 6.90132 47.775 5.1865 55.4291 5.23493C60.8101 5.15937 66.1684 5.94901 71.299 7.57366C75.6901 8.96154 79.73 11.2807 83.1429 14.3727C86.3726 17.3479 88.822 21.0708 90.276 25.2143C91.8725 30.0148 92.4416 35.0973 91.9466 40.132V40.132Z" fill="white"/>
<path d="M93.8344 96.4618L108.785 6.25389H147.709C153.569 6.07044 159.385 7.32658 164.648 9.91232C169.105 12.1562 172.647 15.8753 174.671 20.4366C176.757 25.6605 177.263 31.3824 176.124 36.8912C175.357 42.744 173.031 48.2832 169.39 52.9294C165.749 57.5755 160.926 61.158 155.426 63.3021C149.501 65.6217 143.179 66.7568 136.817 66.6431H113.546L116.72 47.6326H135.096C137.66 47.6755 140.215 47.309 142.664 46.5468C144.705 45.9137 146.532 44.7286 147.942 43.1222C149.393 41.3363 150.308 39.1758 150.582 36.8912C151.054 34.7743 150.838 32.5618 149.964 30.5766C149.07 28.9236 147.584 27.6702 145.804 27.0685C143.541 26.2236 141.136 25.8264 138.721 25.8992H130.101L118.307 96.4618H93.8344ZM153.522 55.0998L169.191 96.4618H142.597L127.462 55.0998H153.522Z" fill="white"/>
<path d="M177.811 96.4619L192.846 6.25391H257.812L254.471 25.9827H213.894L211.422 41.4684H248.574L245.233 61.1972H208.098L205.625 76.6829H245.952L242.611 96.395L177.811 96.4619Z" fill="white"/>
<path d="M278.343 96.4619H251.932L296.652 6.25391H330.062L344.846 96.4619H318.486L309.682 31.1446H308.98L278.343 96.4619ZM279.395 60.8965H329.06L325.886 79.2722H276.238L279.395 60.8965Z" fill="white"/>
<path d="M351.244 26.0496L354.585 6.3208H432.933L429.592 26.0496H402.479L390.786 96.4619H366.73L378.424 26.0496H351.244Z" fill="white"/>
<path d="M466.56 6.3208L451.526 96.5287H427.119L442.154 6.3208H466.56Z" fill="white"/>
<path d="M502.894 6.3208L510.812 69.884H511.531L540.581 6.40433H568.211L523.491 96.6123H490.081L475.28 6.40433L502.894 6.3208Z" fill="white"/>
<path d="M561.813 96.4619L576.848 6.25391H641.814L638.473 25.9827H597.896L595.441 41.4684H632.593L629.252 61.1972H592.1L589.627 76.6829H629.954L626.613 96.395L561.813 96.4619Z" fill="white"/>
<path d="M638.924 96.4619L653.959 6.25399H693.049C698.801 6.05745 704.535 6.99987 709.921 9.02704C713.846 10.481 717.146 13.2495 719.259 16.8618C721.163 20.5297 721.753 24.7394 720.93 28.7893C720.366 32.0338 719.081 35.1106 717.171 37.7934C715.226 40.5392 712.756 42.8726 709.905 44.6592C706.892 46.5931 703.534 47.9261 700.015 48.5849L699.848 49.4536C703.444 49.4734 706.967 50.4725 710.038 52.3436C712.881 54.1128 715.096 56.7308 716.369 59.8275C717.754 63.3602 718.09 67.2173 717.338 70.9364C716.558 75.7896 714.473 80.3396 711.308 84.1001C707.939 88.0693 703.672 91.1787 698.862 93.171C693.339 95.4679 687.403 96.6051 681.422 96.512L638.924 96.4619ZM666.738 76.9336H678.181C681.538 77.1111 684.872 76.2978 687.77 74.5949C688.917 73.8293 689.883 72.8229 690.602 71.6458C691.32 70.4688 691.773 69.1492 691.93 67.7792C692.312 65.974 692.125 64.0947 691.395 62.4001C690.651 60.8937 689.387 59.7072 687.837 59.059C685.844 58.2306 683.697 57.8376 681.539 57.9064H669.745L666.738 76.9336ZM672.385 42.7715H682.408C684.392 42.7987 686.364 42.4531 688.221 41.7525C689.9 41.1327 691.398 40.1051 692.581 38.7623C693.741 37.4472 694.49 35.8211 694.736 34.0848C695.03 32.9349 694.998 31.7259 694.644 30.593C694.29 29.4602 693.628 28.4481 692.732 27.67C690.685 26.1112 688.151 25.3297 685.582 25.4649H675.191L672.385 42.7715Z" fill="white"/>
<path d="M721.732 96.4619L736.766 6.25391H801.733L798.392 25.9827H757.765L755.309 41.4684H792.461L789.12 61.1972H751.951L749.496 76.6829H789.822L786.481 96.395L721.732 96.4619Z" fill="white"/>
<path d="M798.793 96.4619L813.827 6.25391H878.76L875.419 25.9827H834.893L832.42 41.4684H869.573L866.232 61.1972H829.079L826.607 76.6829H866.933L863.592 96.395L798.793 96.4619Z" fill="white"/>
<path d="M875.904 96.4619L890.939 6.25391H954.418L951.077 25.9827H912.004L909.531 41.4684H944.612L941.271 61.1972H906.19L900.377 96.395L875.904 96.4619Z" fill="white"/>
<path d="M968.467 98.4832C966.215 98.5471 963.976 98.1204 961.906 97.2328C959.835 96.3452 957.982 95.0179 956.476 93.343C954.969 91.668 953.845 89.6854 953.181 87.5327C952.517 85.3799 952.329 83.1086 952.631 80.876C953.13 76.1023 955.459 71.7076 959.129 68.6144C962.718 65.3075 967.429 63.4865 972.309 63.5193C974.511 63.4708 976.697 63.9013 978.716 64.7811C980.736 65.6608 982.539 66.9687 984.003 68.6144C985.527 70.2385 986.672 72.1811 987.354 74.3016C988.036 76.4222 988.238 78.6678 987.945 80.876C987.618 84.0989 986.429 87.1743 984.504 89.7799C982.612 92.3981 980.165 94.5658 977.338 96.1278C974.637 97.6745 971.579 98.4866 968.467 98.4832V98.4832Z" fill="white"/>
<path d="M1097.01 40.1322H1072.54C1072.72 38.2433 1072.6 36.3379 1072.19 34.4859C1071.82 32.9026 1071.09 31.4237 1070.07 30.1592C1069.03 28.905 1067.68 27.9434 1066.16 27.3695C1064.32 26.682 1062.36 26.3532 1060.4 26.4006C1056.34 26.3298 1052.34 27.4382 1048.9 29.5912C1045.4 31.8774 1042.53 35.0083 1040.55 38.6956C1038.16 43.0897 1036.55 47.866 1035.79 52.8114C1034.99 57.1631 1034.99 61.6234 1035.79 65.9751C1036.29 69.0569 1037.89 71.8521 1040.3 73.8433C1042.94 75.6687 1046.1 76.5783 1049.3 76.4326C1051.6 76.4504 1053.89 76.1524 1056.1 75.5472C1058.07 75.0084 1059.95 74.1567 1061.65 73.0247C1063.25 71.9454 1064.66 70.6074 1065.82 69.0656C1066.99 67.5106 1067.89 65.779 1068.5 63.9371H1093.14C1092.07 68.0666 1090.38 72.0096 1088.13 75.6307C1085.6 79.7452 1082.45 83.4422 1078.79 86.5893C1074.8 90.0362 1070.24 92.7712 1065.32 94.6746C1059.76 96.8004 1053.84 97.8437 1047.88 97.7484C1040.23 97.9652 1032.66 96.0509 1026.03 92.219C1019.87 88.5022 1015.15 82.7917 1012.67 76.0316C1009.93 68.9375 1009.37 60.2787 1011 50.0551C1012.25 41.1236 1015.6 32.6135 1020.75 25.2145C1025.3 18.8142 1031.37 13.647 1038.41 10.1798C1045.29 6.83319 1052.85 5.11821 1060.5 5.16828C1065.88 5.09272 1071.24 5.88236 1076.37 7.50701C1080.76 8.89489 1084.8 11.214 1088.21 14.306C1091.45 17.3274 1093.89 21.1039 1095.31 25.298C1096.91 30.0699 1097.49 35.1228 1097.01 40.1322Z" fill="white"/>
<path d="M1193.4 52.9783C1192.14 61.8508 1188.79 70.299 1183.65 77.6352C1179.06 84.0323 1172.97 89.1971 1165.91 92.6698C1158.95 96.0248 1151.31 97.7393 1143.59 97.6814C1135.89 97.8874 1128.28 95.9994 1121.57 92.2188C1115.35 88.5431 1110.55 82.8662 1107.97 76.115C1105.13 69.032 1104.58 60.3899 1106.3 50.1886C1107.51 41.2743 1110.83 32.7763 1115.97 25.3981C1120.57 18.9377 1126.69 13.7196 1133.8 10.2131C1140.8 6.77517 1148.5 5.00821 1156.3 5.05118C1163.96 4.86701 1171.53 6.78507 1178.18 10.5973C1184.41 14.326 1189.19 20.0557 1191.75 26.8514C1194.57 34.0013 1195.12 42.7102 1193.4 52.9783ZM1168.76 50.1719C1169.58 45.8607 1169.64 41.4391 1168.93 37.1084C1168.45 33.9816 1166.85 31.137 1164.42 29.1066C1161.79 27.185 1158.57 26.2293 1155.31 26.4004C1151.24 26.3261 1147.24 27.422 1143.77 29.5577C1140.26 31.8385 1137.38 34.9777 1135.42 38.6787C1133.05 43.1376 1131.48 47.9776 1130.79 52.9783C1129.87 57.2645 1129.78 61.6898 1130.54 66.0084C1131.09 69.0934 1132.76 71.8688 1135.22 73.8097C1137.9 75.634 1141.1 76.5423 1144.34 76.399C1148.35 76.478 1152.3 75.4117 1155.73 73.3253C1159.19 71.0911 1162.01 68.0157 1163.95 64.388C1166.36 59.9605 1167.99 55.1516 1168.76 50.1719Z" fill="white"/>
<path d="M88.1546 36.34H63.6815C62.7794 8.57604 26.9301 26.3169 26.9301 49.0193C19.5798 74.645 50.7851 81.444 59.6722 60.1115H84.279C71.5162 109.292 -9.95493 104.48 2.23985 46.2128C5.17996 -3.71897 89.2905 -19.5889 88.1546 36.34Z" stroke="#272727" stroke-width="1.5" stroke-miterlimit="10"/>
<path d="M165.249 49.4869C175.105 37.4091 176.776 13.8548 160.822 6.18708C150.933 -0.144178 116.62 3.41402 104.96 2.54536L89.9253 92.7533H114.465L119.477 63.0014H127.913L138.721 92.6865H165.349L152.62 59.059C157.532 56.9193 161.861 53.6376 165.249 49.4869V49.4869ZM126.276 22.057C139.172 20.8375 153.522 23.7275 144.05 39.3803C139.272 45.1268 129.483 43.7069 122.617 43.8907L126.276 22.057Z" stroke="#272727" stroke-width="1.5" stroke-miterlimit="10"/>
<path d="M173.986 92.6865L189.02 2.47852H253.987L250.646 22.1906H210.086L207.613 37.693H244.766L241.425 57.4051H204.272L201.8 72.9075H242.126L238.785 92.6196L173.986 92.6865Z" stroke="#272727" stroke-width="1.5" stroke-miterlimit="10"/>
<path d="M326.287 3.65039H292.877L248.157 93.8583H274.568L282.62 76.6186H312.338L314.66 93.8751H341.071L326.287 3.65039ZM291.206 58.2429L305.155 28.491H305.856L309.866 58.2429H291.206Z" stroke="#272727" stroke-width="1.5" stroke-miterlimit="10"/>
<path d="M347.402 22.2575L350.743 2.54541H429.091L425.75 22.2575H398.654L386.96 92.6865H362.905L374.598 22.2575H347.402Z" stroke="#272727" stroke-width="1.5" stroke-miterlimit="10"/>
<path d="M462.802 2.54541L447.767 92.7534H423.294L438.328 2.54541H462.802Z" stroke="#272727" stroke-width="1.5" stroke-miterlimit="10"/>
<path d="M499.002 2.54534L506.92 66.1085H507.638L536.689 2.54534H564.319L519.599 92.6865H486.189L471.388 2.47852L499.002 2.54534Z" stroke="#272727" stroke-width="1.5" stroke-miterlimit="10"/>
<path d="M558.021 92.6865L573.056 2.47852H638.022L634.681 22.1906H594.071L591.615 37.693H628.767L625.426 57.4051H588.274L585.802 72.9075H626.128L622.787 92.6196L558.021 92.6865Z" stroke="#272727" stroke-width="1.5" stroke-miterlimit="10"/>
<path d="M635.099 92.6865L650.133 2.47852C661.593 3.28037 696.123 0.340257 706.029 5.35181C727.194 13.6042 715.233 42.8215 696.19 44.8261L696.022 45.7115C722.884 46.6971 715.735 83.2313 694.953 89.4123C684.078 95.209 647.427 91.8512 635.099 92.6865ZM662.913 73.1414C668.442 72.9076 679.718 74.1771 683.945 70.8194C689.04 67.6454 690.359 57.8395 683.945 55.2669C680.453 53.3625 669.929 54.3648 665.853 54.1309L662.913 73.1414ZM668.559 38.9793C674.657 38.7288 684.412 40.416 688.756 35.0202C697.626 21.5057 680.52 20.9879 671.366 21.7396L668.559 38.9793Z" stroke="#272727" stroke-width="1.5" stroke-miterlimit="10"/>
<path d="M717.856 92.6865L732.891 2.47852H797.857L794.516 22.1906H753.939L751.484 37.693H788.636L785.295 57.4051H748.126L745.67 72.9075H785.997L782.656 92.6196L717.856 92.6865Z" stroke="#272727" stroke-width="1.5" stroke-miterlimit="10"/>
<path d="M794.967 92.6865L810.002 2.47852H874.968L871.627 22.1906H831.067L828.645 37.7599H865.797L862.456 57.472H825.304L822.832 72.9744H863.158L859.817 92.6865H794.967Z" stroke="#272727" stroke-width="1.5" stroke-miterlimit="10"/>
<path d="M872.078 92.6865L887.113 2.47852H950.509L947.168 22.1906H908.178L905.706 37.693H940.787L937.446 57.4051H902.365L896.551 92.6196L872.078 92.6865Z" stroke="#272727" stroke-width="1.5" stroke-miterlimit="10"/>
<path d="M964.642 94.7078C940.386 94.4406 946.784 58.491 968.417 59.7439C992.356 60.3119 985.807 95.5598 964.642 94.7078Z" stroke="#272727" stroke-width="1.5" stroke-miterlimit="10"/>
<path d="M1093.19 36.34H1068.72C1067.81 8.57604 1031.96 26.3169 1031.96 49.0193C1024.6 74.645 1055.82 81.444 1064.72 60.1115H1089.25C1076.48 109.292 994.945 104.48 1007.21 46.2128C1010.21 -3.71897 1094.34 -19.5889 1093.19 36.34Z" stroke="#272727" stroke-width="1.5" stroke-miterlimit="10"/>
<path d="M1189.58 49.203C1184.57 106.151 1090.8 111.847 1102.43 46.3798C1107.42 -10.9356 1201.34 -16.7824 1189.58 49.203ZM1164.94 46.3798C1172.2 20.6539 1142.6 14.3393 1131.69 34.9034C1125.48 46.4634 1120.75 73.1081 1140.63 72.6237C1155.2 72.7907 1162.87 59.9277 1164.94 46.3798Z" stroke="#272727" stroke-width="1.5" stroke-miterlimit="10"/>
</svg>
