<svg width="512" height="512" viewBox="0 0 512 512" fill="none" xmlns="http://www.w3.org/2000/svg">
<g clip-path="url(#clip0)">
<path d="M279.151 241.074H211.088C211.636 235.845 211.306 230.56 210.113 225.439C209.087 221.024 207.072 216.9 204.221 213.376C201.347 209.883 197.602 207.21 193.364 205.628C188.249 203.718 182.816 202.805 177.357 202.937C166.084 202.74 154.996 205.818 145.437 211.798C135.706 218.148 127.728 226.843 122.238 237.084C115.567 249.256 111.047 262.488 108.876 276.197C106.663 288.283 106.663 300.671 108.876 312.757C110.272 321.316 114.723 329.08 121.403 334.61C128.727 339.68 137.513 342.206 146.411 341.801C152.788 341.851 159.142 341.023 165.294 339.342C170.771 337.846 175.971 335.48 180.698 332.336C185.147 329.339 189.066 325.623 192.297 321.34C195.538 317.033 198.046 312.22 199.721 307.097H268.295C265.329 318.566 260.636 329.517 254.376 339.574C239.578 363.629 217.321 382.187 190.998 392.42C175.543 398.324 159.102 401.221 142.56 400.957C121.295 401.54 100.286 396.208 81.8735 385.553C64.743 375.23 51.6488 359.37 44.7563 340.595C37.1472 320.892 35.6007 296.843 40.1166 268.448C43.7019 243.687 53.0633 220.116 67.4442 199.642C80.0693 181.866 96.9238 167.515 116.485 157.886C135.588 148.591 156.578 143.828 177.821 143.967C192.767 143.757 207.649 145.95 221.898 150.462C234.094 154.317 245.314 160.758 254.793 169.346C263.727 177.695 270.495 188.093 274.512 199.642C278.923 212.98 280.503 227.091 279.151 241.074Z" fill="#FCE473"/>
<path d="M260.593 219.686H192.714C193.214 214.44 192.885 209.148 191.74 204.004C190.704 199.606 188.69 195.499 185.848 191.987C182.965 188.504 179.223 185.833 174.991 184.239C169.876 182.33 164.443 181.416 158.984 181.548C147.711 181.351 136.622 184.43 127.063 190.41C117.332 196.759 109.355 205.455 103.865 215.696C97.2205 227.9 92.7464 241.165 90.6422 254.901C88.4286 266.987 88.4286 279.375 90.6422 291.461C92.0385 300.02 96.4888 307.784 103.169 313.314C110.493 318.384 119.279 320.91 128.177 320.505C134.559 320.525 140.913 319.666 147.06 317.953C152.537 316.457 157.737 314.092 162.464 310.948C171.449 304.909 178.134 296.016 181.44 285.708H249.921C246.956 297.177 242.262 308.128 236.002 318.185C228.986 329.613 220.236 339.881 210.067 348.622C198.981 358.195 186.331 365.791 172.671 371.077C157.216 376.981 140.776 379.879 124.233 379.614C102.981 380.245 81.9714 374.96 63.5467 364.35C46.4162 354.027 33.3221 338.167 26.4295 319.392C18.8205 299.689 17.2739 275.64 21.7898 247.245C25.2777 222.512 34.5271 198.943 48.7926 178.439C61.412 160.676 78.2481 146.327 97.7873 136.682C116.908 127.392 137.912 122.629 159.17 122.763C174.115 122.554 188.997 124.747 203.246 129.259C215.442 133.114 226.663 139.555 236.142 148.142C245.112 156.406 251.915 166.746 255.953 178.254C260.387 191.586 261.968 205.703 260.593 219.686V219.686Z" fill="#F8C8C8"/>
<path d="M250.061 209.154H182.09C179.584 132.043 80.0175 181.316 80.0175 244.369C59.6031 315.541 146.272 334.424 170.955 275.176H239.297C203.85 411.767 -22.4259 398.405 11.4435 236.574C19.6093 97.8951 253.216 53.8184 250.061 209.154Z" stroke="#272727" stroke-width="1.5" stroke-miterlimit="10"/>
<path d="M274.328 392.857L316.085 142.315H424.652C440.626 141.793 456.547 144.409 471.513 150.017C482.413 154.056 491.578 161.745 497.448 171.777C502.737 181.965 504.374 193.656 502.088 204.904C500.521 213.916 496.954 222.461 491.649 229.912C486.246 237.538 479.387 244.019 471.466 248.981C463.15 254.311 453.889 257.996 444.185 259.838L443.675 262.25C453.6 262.339 463.315 265.113 471.791 270.277C479.7 275.188 485.867 282.459 489.422 291.063C493.244 300.88 494.178 311.586 492.113 321.916C489.909 335.393 484.106 348.025 475.317 358.477C465.96 369.501 454.111 378.137 440.752 383.67C425.412 390.049 408.925 393.208 392.314 392.949L274.328 392.857ZM351.624 338.573H383.406C392.713 339.059 401.957 336.8 409.991 332.077C413.165 329.961 415.842 327.18 417.837 323.928C419.832 320.676 421.096 317.029 421.544 313.24C422.606 308.227 422.087 303.007 420.059 298.3C417.992 294.117 414.482 290.821 410.177 289.021C404.644 286.711 398.678 285.619 392.685 285.82H359.929L351.624 338.573ZM367.26 243.645H395.098C400.594 243.716 406.055 242.756 411.197 240.815C415.845 239.133 420.005 236.328 423.307 232.649C426.536 229.002 428.617 224.483 429.292 219.658C430.104 216.476 430.018 213.13 429.043 209.993C428.069 206.856 426.244 204.051 423.771 201.889C418.086 197.559 411.049 195.389 403.913 195.764H375.054L367.26 243.645Z" fill="#FCE473"/>
<path d="M255.954 371.421L297.711 120.88H406.279C422.254 120.334 438.179 122.952 453.139 128.582C464.04 132.62 473.204 140.31 479.075 150.342C484.363 160.529 486.001 172.221 483.715 183.469C482.148 192.48 478.58 201.026 473.276 208.477C467.873 216.103 461.013 222.584 453.093 227.546C444.726 232.917 435.399 236.619 425.626 238.449L425.162 240.862C435.15 240.917 444.935 243.692 453.464 248.888C461.36 253.802 467.511 261.073 471.049 269.674C474.894 279.486 475.828 290.198 473.74 300.528C471.572 314.007 465.783 326.644 456.99 337.088C447.633 348.112 435.784 356.748 422.425 362.281C407.085 368.66 390.598 371.819 373.987 371.561L255.954 371.421ZM333.205 317.184H364.986C374.308 317.677 383.57 315.418 391.618 310.688C394.803 308.562 397.487 305.767 399.482 302.498C401.477 299.229 402.736 295.564 403.171 291.759C404.233 286.745 403.714 281.525 401.686 276.819C399.619 272.635 396.109 269.34 391.803 267.54C386.267 265.239 380.304 264.147 374.312 264.338H341.556L333.205 317.184ZM348.887 222.303H376.724C382.236 222.379 387.713 221.419 392.87 219.473C397.533 217.751 401.694 214.897 404.98 211.168C408.202 207.516 410.283 202.999 410.965 198.177C411.781 194.983 411.692 191.625 410.709 188.479C409.726 185.332 407.887 182.522 405.398 180.361C399.713 176.031 392.676 173.861 385.54 174.236H356.681L348.887 222.303Z" fill="#F8C8C8"/>
<path d="M245.33 360.936L287.087 110.395C318.915 112.622 414.816 104.456 442.329 118.375C501.114 141.295 467.894 222.442 415.002 228.01L414.538 230.469C489.143 233.206 469.286 334.675 411.568 351.842C381.364 367.942 279.57 358.616 245.33 360.936ZM322.58 306.652C337.937 306.002 369.255 309.528 380.993 300.203C395.144 291.387 398.809 264.153 380.993 257.008C371.296 251.718 342.066 254.502 330.746 253.853L322.58 306.652ZM338.262 211.771C355.197 211.075 382.292 215.761 394.355 200.775C418.992 163.24 371.482 161.802 346.056 163.89L338.262 211.771Z" stroke="#272727" stroke-width="1.5" stroke-miterlimit="10"/>
</g>
<defs>
<clipPath id="clip0">
<rect width="512" height="512" fill="white"/>
</clipPath>
</defs>
</svg>
