<svg width="32" height="32" viewBox="0 0 32 32" fill="none" xmlns="http://www.w3.org/2000/svg">
<g clip-path="url(#clip0)">
<path d="M17.447 15.0671H13.193C13.2273 14.7403 13.2066 14.41 13.1321 14.09C13.068 13.814 12.942 13.5563 12.7638 13.336C12.5842 13.1177 12.3501 12.9506 12.0853 12.8518C11.7656 12.7324 11.426 12.6753 11.0848 12.6836C10.3803 12.6713 9.68726 12.8636 9.08982 13.2374C8.48163 13.6343 7.98301 14.1777 7.63988 14.8178C7.22295 15.5785 6.94045 16.4055 6.80476 17.2623C6.66645 18.0177 6.66645 18.792 6.80476 19.5473C6.89201 20.0823 7.1702 20.5675 7.5877 20.9131C8.04545 21.23 8.59457 21.3879 9.1507 21.3626C9.54926 21.3657 9.94639 21.314 10.3309 21.2089C10.6732 21.1154 10.9982 20.9675 11.2936 20.771C11.5717 20.5837 11.8166 20.3515 12.0186 20.0838C12.2211 19.8146 12.3779 19.5138 12.4826 19.1936H16.7685C16.5831 19.9104 16.2898 20.5948 15.8985 21.2234C14.9736 22.7268 13.5826 23.8867 11.9374 24.5263C10.9715 24.8953 9.94389 25.0763 8.91001 25.0598C7.58095 25.0963 6.26788 24.763 5.1171 24.0971C4.04644 23.4519 3.22806 22.4606 2.79727 21.2872C2.3217 20.0558 2.22505 18.5527 2.50729 16.778C2.73137 15.2305 3.31646 13.7573 4.21527 12.4776C5.00434 11.3666 6.05775 10.4697 7.28032 9.8679C8.47426 9.28696 9.78614 8.98927 11.1138 8.99796C12.048 8.98484 12.9781 9.1219 13.8686 9.4039C14.6309 9.64484 15.3321 10.0474 15.9246 10.5841C16.483 11.106 16.906 11.7558 17.157 12.4776C17.4327 13.3113 17.5315 14.1932 17.447 15.0671Z" fill="#FCE473"/>
<path d="M16.2871 13.7304H12.0446C12.0759 13.4025 12.0553 13.0718 11.9837 12.7503C11.919 12.4754 11.7931 12.2187 11.6155 11.9992C11.4353 11.7815 11.2014 11.6146 10.9369 11.515C10.6172 11.3957 10.2777 11.3385 9.93649 11.3468C9.23193 11.3345 8.53886 11.5269 7.94143 11.9007C7.33324 12.2975 6.83467 12.841 6.49155 13.481C6.07627 14.2438 5.79664 15.0729 5.66512 15.9314C5.52677 16.6867 5.52677 17.461 5.66512 18.2164C5.75239 18.7513 6.03054 19.2365 6.44805 19.5822C6.9058 19.899 7.45492 20.0569 8.01105 20.0316C8.40993 20.0329 8.80705 19.9792 9.19124 19.8721C9.53355 19.7786 9.85855 19.6308 10.154 19.4343C10.7156 19.0569 11.1334 18.501 11.34 17.8568H15.6201C15.4347 18.5736 15.1414 19.258 14.7501 19.8866C14.3116 20.6009 13.7647 21.2426 13.1292 21.7889C12.4363 22.3872 11.6457 22.862 10.7919 23.1924C9.82599 23.5614 8.79849 23.7425 7.76455 23.7259C6.4363 23.7654 5.1232 23.435 3.97165 22.7719C2.90099 22.1267 2.08261 21.1355 1.65183 19.962C1.17626 18.7306 1.0796 17.2275 1.36184 15.4529C1.57984 13.907 2.15793 12.434 3.04952 11.1525C3.83823 10.0423 4.89049 9.14548 6.11169 8.54267C7.30674 7.96204 8.61949 7.66435 9.94811 7.67273C10.8822 7.65967 11.8123 7.79673 12.7029 8.07873C13.4651 8.31967 14.1664 8.72223 14.7589 9.25892C15.3195 9.77542 15.7447 10.4217 15.9971 11.1409C16.2742 11.9742 16.373 12.8565 16.2871 13.7304Z" fill="#F8C8C8"/>
<path d="M15.6288 13.0721H11.3806C11.224 8.25269 5.00109 11.3323 5.00109 15.2731C3.72519 19.7213 9.142 20.9015 10.6847 17.1985H14.9561C12.7406 25.7354 -1.40162 24.9003 0.715219 14.7859C1.22558 6.11845 15.826 3.36365 15.6288 13.0721Z" stroke="#272727" stroke-width="1.5" stroke-miterlimit="10"/>
<path d="M17.1455 24.5536L19.7553 8.8947H26.5408C27.5391 8.86208 28.5342 9.02558 29.4696 9.37607C30.1508 9.62851 30.7236 10.1091 31.0905 10.7361C31.4211 11.3728 31.5234 12.1035 31.3805 12.8065C31.2826 13.3698 31.0596 13.9038 30.7281 14.3695C30.3904 14.8461 29.9617 15.2512 29.4666 15.5613C28.9469 15.8944 28.3681 16.1248 27.7616 16.2399L27.7297 16.3906C28.35 16.3962 28.9572 16.5696 29.487 16.8923C29.9813 17.1993 30.3667 17.6537 30.5889 18.1914C30.8278 18.805 30.8861 19.4741 30.7571 20.1198C30.6193 20.9621 30.2566 21.7516 29.7073 22.4048C29.1225 23.0938 28.382 23.6336 27.547 23.9794C26.5883 24.3781 25.5578 24.5755 24.5196 24.5593L17.1455 24.5536ZM21.9765 21.1608H23.9629C24.5446 21.1912 25.1223 21.05 25.6245 20.7548C25.8228 20.6226 25.9901 20.4488 26.1148 20.2455C26.2395 20.0423 26.3185 19.8143 26.3465 19.5775C26.4129 19.2642 26.3805 18.9379 26.2537 18.6438C26.1245 18.3823 25.9051 18.1763 25.6361 18.0638C25.2903 17.9194 24.9174 17.8512 24.5428 17.8638H22.4956L21.9765 21.1608ZM22.9538 15.2278H24.6936C25.0371 15.2323 25.3785 15.1723 25.6998 15.0509C25.9903 14.9458 26.2503 14.7705 26.4567 14.5406C26.6585 14.3126 26.7886 14.0302 26.8308 13.7286C26.8815 13.5298 26.8761 13.3206 26.8152 13.1246C26.7543 12.9285 26.6403 12.7532 26.4857 12.6181C26.1304 12.3474 25.6906 12.2118 25.2446 12.2353H23.4409L22.9538 15.2278Z" fill="#FCE473"/>
<path d="M15.9971 23.2138L18.6069 7.55502H25.3924C26.3909 7.5209 27.3862 7.68452 28.3212 8.0364C29.0025 8.28877 29.5753 8.7694 29.9422 9.3964C30.2727 10.0331 30.3751 10.7638 30.2322 11.4668C30.1343 12.03 29.9113 12.5641 29.5798 13.0298C29.2421 13.5065 28.8133 13.9115 28.3183 14.2216C27.7954 14.5573 27.2124 14.7887 26.6016 14.9031L26.5726 15.0539C27.1969 15.0573 27.8084 15.2308 28.3415 15.5555C28.835 15.8626 29.2194 16.3171 29.4406 16.8546C29.6809 17.4679 29.7393 18.1374 29.6088 18.783C29.4733 19.6255 29.1114 20.4153 28.5619 21.068C27.9771 21.757 27.2365 22.2968 26.4016 22.6426C25.4428 23.0413 24.4124 23.2387 23.3742 23.2226L15.9971 23.2138ZM20.8253 19.824H22.8116C23.3943 19.8548 23.9731 19.7136 24.4761 19.418C24.6752 19.2851 24.8429 19.1105 24.9676 18.9061C25.0923 18.7018 25.171 18.4728 25.1982 18.235C25.2646 17.9216 25.2321 17.5953 25.1054 17.3012C24.9762 17.0397 24.7568 16.8338 24.4877 16.7213C24.1417 16.5775 23.769 16.5092 23.3945 16.5211H21.3473L20.8253 19.824ZM21.8054 13.894H23.5453C23.8898 13.8987 24.2321 13.8387 24.5544 13.7171C24.8458 13.6095 25.1059 13.4311 25.3113 13.198C25.5126 12.9698 25.6427 12.6875 25.6853 12.3861C25.7363 12.1865 25.7308 11.9766 25.6693 11.78C25.6079 11.5833 25.4929 11.4076 25.3374 11.2726C24.9821 11.002 24.5423 10.8663 24.0963 10.8898H22.2926L21.8054 13.894Z" fill="#F8C8C8"/>
<path d="M15.3332 22.5585L17.943 6.8997C19.9323 7.03889 25.9261 6.52852 27.6456 7.39845C31.3197 8.83095 29.2434 13.9026 25.9377 14.2506L25.9087 14.4043C30.5715 14.5754 29.3304 20.9172 25.7231 21.9901C23.8353 22.9964 17.4732 22.4135 15.3332 22.5585ZM20.1613 19.1658C21.1211 19.1251 23.0785 19.3455 23.8121 18.7627C24.6966 18.2117 24.9256 16.5096 23.8121 16.063C23.2061 15.7324 21.3792 15.9064 20.6717 15.8658L20.1613 19.1658ZM21.1414 13.2357C22.1999 13.1922 23.8933 13.4851 24.6473 12.5485C26.1871 10.2025 23.2177 10.1126 21.6286 10.2431L21.1414 13.2357Z" stroke="#272727" stroke-width="1.5" stroke-miterlimit="10"/>
</g>
<defs>
<clipPath id="clip0">
<rect width="32" height="32" fill="white"/>
</clipPath>
</defs>
</svg>
